<?xml version="1.0" standalone="no"?>
<!DOCTYPE svg PUBLIC "-//W3C//DTD SVG 20010904//EN"
 "http://www.w3.org/TR/2001/REC-SVG-20010904/DTD/svg10.dtd">
<svg version="1.0" xmlns="http://www.w3.org/2000/svg"
 width="256.000000pt" height="256.000000pt" viewBox="0 0 256.000000 256.000000"
 preserveAspectRatio="xMidYMid meet">
<metadata>
Created by potrace 1.14, written by Peter Selinger 2001-2017
</metadata>
<g transform="translate(0.000000,256.000000) scale(0.100000,-0.100000)"
fill="#000000" stroke="none">
<path d="M1249 2158 c-1 -2 -2 -45 -3 -96 -1 -78 1 -92 14 -90 12 3 15 20 15
83 1 86 -2 105 -16 105 -5 0 -10 -1 -10 -2z"/>
<path d="M888 2094 c-5 -5 63 -148 78 -163 2 -3 9 0 14 5 7 7 -3 35 -28 84
-37 71 -51 88 -64 74z"/>
<path d="M1567 2022 c-41 -85 -43 -92 -24 -92 12 0 87 138 87 160 0 6 -6 10
-12 10 -7 0 -30 -35 -51 -78z"/>
<path d="M1189 1885 c-3 -2 -18 -6 -34 -9 -46 -9 -146 -62 -187 -101 -90 -84
-138 -189 -142 -308 -4 -109 18 -175 98 -291 23 -33 47 -77 55 -96 7 -19 17
-43 22 -52 5 -10 12 -43 15 -75 4 -32 8 -65 9 -73 1 -8 -8 -28 -21 -43 -32
-38 -31 -82 1 -103 18 -12 22 -20 16 -33 -17 -31 -1 -70 38 -92 25 -14 41 -31
47 -52 15 -51 80 -81 179 -82 89 -2 129 12 141 47 11 31 11 41 3 53 -5 6 6 10
28 11 54 1 69 29 48 92 -3 12 3 21 18 27 30 14 33 54 7 104 -16 32 -19 52 -14
89 10 80 43 163 104 262 32 52 65 119 74 149 63 215 -74 480 -289 556 -44 16
-206 31 -216 20z m188 -42 c14 -5 -18 -8 -85 -8 -99 0 -112 -2 -172 -31 -146
-70 -234 -194 -247 -349 -2 -33 0 -79 5 -102 5 -24 6 -41 2 -38 -9 5 -23 82
-25 135 -6 170 113 332 289 391 53 18 188 19 233 2z m-308 -966 c1 -10 -3 -16
-7 -13 -5 3 -9 29 -9 58 l-1 53 8 -40 c5 -22 9 -48 9 -58z m1 -55 c0 -11 -48
-60 -54 -55 -12 12 -6 42 10 51 16 9 44 12 44 4z m10 -142 c-11 -11 -20 -26
-21 -32 0 -7 -4 -4 -8 7 -12 29 -2 45 25 45 l24 0 -20 -20z m73 -111 c-4 -13
-9 -17 -15 -11 -11 11 -3 32 12 32 4 0 6 -9 3 -21z"/>
<path d="M670 1848 c0 -13 92 -78 109 -78 28 0 14 21 -34 54 -58 38 -75 44
-75 24z"/>
<path d="M1778 1828 c-44 -27 -63 -58 -38 -58 18 0 110 65 110 78 0 19 -21 13
-72 -20z"/>
<path d="M620 1573 c0 -16 12 -21 63 -26 42 -5 54 4 32 23 -8 7 -15 10 -15 8
0 -3 -18 -2 -40 2 -31 6 -40 4 -40 -7z"/>
<path d="M1844 1581 c-68 -17 -69 -41 -2 -34 47 5 64 15 54 32 -8 12 -8 12
-52 2z"/>
</g>
</svg>
