<svg aria-hidden="true" style="position: absolute; width: 0; height: 0; overflow: hidden;" version="1.1" xmlns="http://www.w3.org/2000/svg" xmlns:xlink="http://www.w3.org/1999/xlink">
<defs>
<symbol id="icon-css3" viewBox="0 0 32 32">
<path fill="#1572b6" style="fill: var(--color1, #1572b6)" d="M2 0h28l-2.547 28.751-11.484 3.249-11.42-3.251zM24.787 5.884l-17.573-0.004 0.284 3.496 13.5 0.003-0.34 3.621h-8.853l0.32 3.431h8.243l-0.488 4.697-3.88 1.072-3.941-1.080-0.251-2.813h-3.48l0.387 5.14 7.287 2.271 7.164-2.040z"></path>
</symbol>
<symbol id="icon-html5" viewBox="0 0 32 32">
<path fill="#e34f26" style="fill: var(--color2, #e34f26)" d="M2 0h28l-2.547 28.751-11.484 3.249-11.419-3.251zM11.375 13l-0.309-3.624 13.412 0.004 0.307-3.496-17.568-0.004 0.931 10.68h12.168l-0.435 4.568-3.88 1.072-3.94-1.080-0.251-2.813h-3.479l0.44 5.561 7.229 1.933 7.172-1.924 0.992-10.876z"></path>
</symbol>
</defs>
</svg>
